<?xml version="1.0" encoding="UTF-8"?>
<svg id="_레이어_2" data-name="레이어 2" xmlns="http://www.w3.org/2000/svg" viewBox="0 0 805.27 787.96">
  <defs>
    <style>
      .cls-1 {
        fill: #d2311c;
        stroke-width: 0px;
      }
    </style>
  </defs>
  <g id="Layer_1" data-name="Layer 1">
    <g>
      <path class="cls-1" d="M13.16,348.11c-14.7,6.46-17.77,25.97-5.76,36.63l171.36,152.08,502.89-401.02-446.22,451.31,172.14,152.77c10.86,9.63,27.9,6.31,34.35-6.69L805.27,0,13.16,348.11Z"/>
      <path class="cls-1" d="M150.03,600.24l24.43,165.28c2.55,17.28,20.95,27.29,36.84,20.06l87.38-39.76c8.88-.14,13.07-11.02,6.58-17.08l-141.75-132.33c-5.45-5.08-14.23-.3-12.91,7.03l23.87,162.06c2.55,17.28,20.95,27.31,36.85,20.07l87.36-39.75c8.88-.14,13.07-11.02,6.58-17.08l-144.12-134.55c-4.69-4.38-12.24-.26-11.11,6.05Z"/>
    </g>
  </g>
</svg>